<?xml version="1.0" encoding="UTF-8" standalone="no"?>
<svg
   xmlns:dc="http://purl.org/dc/elements/1.1/"
   xmlns:cc="http://creativecommons.org/ns#"
   xmlns:rdf="http://www.w3.org/1999/02/22-rdf-syntax-ns#"
   xmlns:svg="http://www.w3.org/2000/svg"
   xmlns="http://www.w3.org/2000/svg"
   xmlns:sodipodi="http://sodipodi.sourceforge.net/DTD/sodipodi-0.dtd"
   xmlns:inkscape="http://www.inkscape.org/namespaces/inkscape"
   version="1.1"
   id="svg2"
   style="display:inline"
   height="24"
   width="24"
   inkscape:version="0.91 r13725"
   sodipodi:docname="icon.svg"
   inkscape:export-filename="/mnt/host/Projects/qgis-cartogram/assets/icon.png"
   inkscape:export-xdpi="240"
   inkscape:export-ydpi="240">
  <title
     id="title4147">Natural Earth Raster</title>
  <sodipodi:namedview
     pagecolor="#ffffff"
     bordercolor="#666666"
     borderopacity="1"
     objecttolerance="10"
     gridtolerance="10"
     guidetolerance="10"
     inkscape:pageopacity="0"
     inkscape:pageshadow="2"
     inkscape:window-width="1920"
     inkscape:window-height="1031"
     id="namedview19"
     showgrid="true"
     inkscape:zoom="27.812867"
     inkscape:cx="11.781756"
     inkscape:cy="11.698529"
     inkscape:window-x="0"
     inkscape:window-y="25"
     inkscape:window-maximized="1"
     inkscape:current-layer="svg2">
    <inkscape:grid
       type="xygrid"
       id="grid4147"
       dotted="true"
       originx="0.5"
       originy="0.5" />
  </sodipodi:namedview>
  <metadata
     id="metadata22">
    <rdf:RDF>
      <cc:Work
         rdf:about="">
        <dc:format>image/svg+xml</dc:format>
        <dc:type
           rdf:resource="http://purl.org/dc/dcmitype/StillImage" />
        <dc:title>Natural Earth Raster</dc:title>
        <cc:license
           rdf:resource="http://creativecommons.org/licenses/by/3.0/" />
        <dc:date>2015-08-10</dc:date>
        <dc:creator>
          <cc:Agent>
            <dc:title>Morten Wulff</dc:title>
          </cc:Agent>
        </dc:creator>
        <dc:rights>
          <cc:Agent>
            <dc:title>Morten Wulff</dc:title>
          </cc:Agent>
        </dc:rights>
        <dc:publisher>
          <cc:Agent>
            <dc:title>Dagbladet Information</dc:title>
          </cc:Agent>
        </dc:publisher>
        <dc:subject>
          <rdf:Bag>
            <rdf:li>icon</rdf:li>
            <rdf:li>earth</rdf:li>
            <rdf:li>globe</rdf:li>
          </rdf:Bag>
        </dc:subject>
      </cc:Work>
      <cc:License
         rdf:about="http://creativecommons.org/licenses/by/3.0/">
        <cc:permits
           rdf:resource="http://creativecommons.org/ns#Reproduction" />
        <cc:permits
           rdf:resource="http://creativecommons.org/ns#Distribution" />
        <cc:requires
           rdf:resource="http://creativecommons.org/ns#Notice" />
        <cc:requires
           rdf:resource="http://creativecommons.org/ns#Attribution" />
        <cc:permits
           rdf:resource="http://creativecommons.org/ns#DerivativeWorks" />
      </cc:License>
    </rdf:RDF>
  </metadata>
  <defs
     id="defs20" />
  <circle
     style="opacity:1;fill:#6d97c4;fill-opacity:1;stroke-width:1;stroke-miterlimit:4;stroke-dasharray:none"
     id="path4980"
     cx="12"
     cy="12"
     r="12" />
  <path
     style="display:inline;opacity:0.5;fill:#e6e6e6;fill-opacity:1;stroke:none;stroke-width:0.96100003;stroke-miterlimit:4;stroke-dasharray:none;stroke-opacity:1"
     d="M 16.914062 2.4492188 L 12 10.996094 L 12 12.509766 L 22.429688 14.550781 A 10.75 10.75 0 0 0 22.621094 13.568359 L 12.78125 11.644531 L 17.779297 2.9492188 A 10.75 10.75 0 0 0 16.914062 2.4492188 z "
     id="path4259-4" />
  <path
     style="opacity:1;fill:#ffcc30;fill-opacity:1;stroke:none;stroke-width:0.96100003;stroke-miterlimit:4;stroke-dasharray:none;stroke-opacity:1"
     d="M 12 1.25 A 10.75 10.75 0 0 0 1.25 12 A 10.75 10.75 0 0 0 12 22.75 L 12 1.25 z "
     id="path4259" />
  <path
     style="display:inline;opacity:0.5;fill:#e1e6e6;fill-opacity:1;stroke:none;stroke-width:0.96100003;stroke-miterlimit:4;stroke-dasharray:none;stroke-opacity:1"
     d="M 3.0234375 6.1289062 A 10.75 10.75 0 0 0 2.5195312 6.9921875 L 11.013672 12 L 2.5175781 17.009766 A 10.75 10.75 0 0 0 3.0253906 17.869141 L 12.023438 12.566406 L 12.023438 11.431641 L 3.0234375 6.1289062 z "
     id="path4259-0" />
  <path
     style="opacity:1;fill:#ffcc30;fill-opacity:1;stroke:none;stroke-width:0.96100003;stroke-miterlimit:4;stroke-dasharray:none;stroke-opacity:1"
     d="M 12 0 A 12 12 0 0 0 0 12 A 12 12 0 0 0 12 24 A 12 12 0 0 0 24 12 A 12 12 0 0 0 12 0 z M 12 1.5 A 10.5 10.5 0 0 1 22.5 12 A 10.5 10.5 0 0 1 12 22.5 A 10.5 10.5 0 0 1 1.5 12 A 10.5 10.5 0 0 1 12 1.5 z "
     id="path4246" />
  <circle
     cy="12"
     cx="12"
     id="path3834-7"
     style="display:inline;opacity:1;fill:none;fill-opacity:1;fill-rule:nonzero;stroke:#415a75;stroke-width:1;stroke-linecap:round;stroke-linejoin:round;stroke-miterlimit:4;stroke-dasharray:none;stroke-dashoffset:7;stroke-opacity:1"
     r="11.499985" />
</svg>
